<svg xmlns="http://www.w3.org/2000/svg" width="25" height="22.222" viewBox="0 0 25 22.222">
  <path id="Icon_awesome-hospital-alt" data-name="Icon awesome-hospital-alt" d="M23.611,4.167H18.056V1.389A1.387,1.387,0,0,0,16.667,0H8.333A1.387,1.387,0,0,0,6.944,1.389V4.167H1.389A1.387,1.387,0,0,0,0,5.556V21.528a.7.7,0,0,0,.694.694H24.306A.7.7,0,0,0,25,21.528V5.556A1.387,1.387,0,0,0,23.611,4.167ZM6.944,18.924a.522.522,0,0,1-.521.521H4.688a.522.522,0,0,1-.521-.521V17.188a.522.522,0,0,1,.521-.521H6.424a.522.522,0,0,1,.521.521Zm0-5.556a.522.522,0,0,1-.521.521H4.688a.522.522,0,0,1-.521-.521V11.632a.522.522,0,0,1,.521-.521H6.424a.522.522,0,0,1,.521.521Zm6.944,5.556a.522.522,0,0,1-.521.521H11.632a.522.522,0,0,1-.521-.521V17.188a.522.522,0,0,1,.521-.521h1.736a.522.522,0,0,1,.521.521Zm0-5.556a.522.522,0,0,1-.521.521H11.632a.522.522,0,0,1-.521-.521V11.632a.522.522,0,0,1,.521-.521h1.736a.522.522,0,0,1,.521.521Zm.694-7.378a.261.261,0,0,1-.26.26H13.194V7.378a.261.261,0,0,1-.26.26h-.868a.261.261,0,0,1-.26-.26V6.25H10.677a.261.261,0,0,1-.26-.26V5.122a.261.261,0,0,1,.26-.26h1.128V3.733a.261.261,0,0,1,.26-.26h.868a.261.261,0,0,1,.26.26V4.861h1.128a.261.261,0,0,1,.26.26Zm6.25,12.934a.522.522,0,0,1-.521.521H18.576a.522.522,0,0,1-.521-.521V17.188a.522.522,0,0,1,.521-.521h1.736a.522.522,0,0,1,.521.521Zm0-5.556a.522.522,0,0,1-.521.521H18.576a.522.522,0,0,1-.521-.521V11.632a.522.522,0,0,1,.521-.521h1.736a.522.522,0,0,1,.521.521Z" fill="#4f6a20"/>
</svg>
