<svg xmlns="http://www.w3.org/2000/svg" width="50" height="50" viewBox="0 0 50 50">
  <path id="Icon_metro-warning" data-name="Icon metro-warning" d="M27.571,6.458,48.523,48.217H6.618L27.571,6.458Zm0-4.53A3.614,3.614,0,0,0,24.6,4.108L3.256,46.643c-1.635,2.907-.244,5.285,3.091,5.285H48.794c3.335,0,4.726-2.378,3.091-5.285h0L30.543,4.108a3.614,3.614,0,0,0-2.973-2.18ZM30.7,42.553a3.125,3.125,0,1,1-3.125-3.125A3.125,3.125,0,0,1,30.7,42.553ZM27.571,36.3a3.125,3.125,0,0,1-3.125-3.125V23.8a3.125,3.125,0,0,1,6.25,0v9.375A3.125,3.125,0,0,1,27.571,36.3Z" transform="translate(-2.571 -1.928)" fill="#d9b800"/>
</svg>
